<svg xmlns="http://www.w3.org/2000/svg" width="128.633" height="60.289" viewBox="0 0 34.034 15.951"><g font-weight="700" font-family="Kanit" letter-spacing="0" word-spacing="0" fill="#fff" stroke="#000"><path style="line-height:1.25;-inkscape-font-specification:'Kanit, Bold';font-variant-ligatures:normal;font-variant-caps:normal;font-variant-numeric:normal;font-feature-settings:normal;text-align:start" d="M.207.306v6.097H.2v9.348h2.002v-.005h5.175v-3.408l1.101 2.244h1.069l1.09-2.244v3.408h1.99V8.931H10.7l-1.683 3.46-1.694-3.46H5.388v4.84H2.202V6.402h-.006V4.465h2.73V2.962h-2.73V1.787H5.33V.306z" font-size="10.583" stroke-width=".40004495999999995"/><path style="line-height:1.25;-inkscape-font-specification:'Kanit, Bold';font-variant-ligatures:normal;font-variant-caps:normal;font-variant-numeric:normal;font-feature-settings:normal;text-align:start" d="M8.152.306h2.106l2.614 6.815h-2.075l-.571-1.45H8.173l-.561 1.45H5.538zm1.81 3.937l-.763-2-.762 2zM15.962 7.227q-.698 0-1.312-.106-.614-.116-1.037-.317v-1.64q.487.222 1.069.36.582.137 1.08.137.57 0 .814-.095.254-.106.254-.402 0-.19-.127-.307-.116-.127-.35-.212-.232-.095-.74-.254-.17-.042-.254-.074-.698-.222-1.1-.487-.392-.265-.572-.635-.17-.38-.17-.942 0-1.005.72-1.524Q14.957.2 16.354.2q.54 0 1.132.095.604.085.995.212v1.65q-.931-.37-1.81-.37-.56 0-.846.085-.275.085-.275.37 0 .18.116.286.116.106.35.19.243.075.814.223.815.222 1.249.54.445.307.614.709.17.402.17.974 0 .952-.742 1.513-.73.55-2.159.55z" font-size="10.583" stroke-width=".4"/><path style="line-height:1.25;-inkscape-font-specification:'Kanit, Bold';font-variant-ligatures:normal;font-variant-caps:normal;font-variant-numeric:normal;font-feature-settings:normal;text-align:start" d="M24.754.305h0-5.346v1.482h1.915v5.334h1.99V1.787h1.44v.002h7.599v7.142h-3.685v6.815h5.165v-1.524h-3.175v-1.111h2.783v-1.545h-2.783v-1.111h3.175V1.789h.002V.305z" font-size="10.583" stroke-width=".40004495999999995"/><path style="line-height:1.25;-inkscape-font-specification:'Kanit, Bold';font-variant-ligatures:normal;font-variant-caps:normal;font-variant-numeric:normal;font-feature-settings:normal;text-align:start" d="M13.973 8.93h5.164v1.524h-3.175v1.112h2.784v1.545h-2.784v1.111h3.175v1.524h-5.164zM20.282 8.93h1.936l1.694 3.461 1.682-3.46h1.927v6.815h-1.99v-3.408l-1.09 2.244h-1.07l-1.1-2.244v3.408h-1.99z" stroke-width=".4"/></g></svg>